<svg width="29" height="74" viewBox="0 0 29 74" fill="none" xmlns="http://www.w3.org/2000/svg">
<path d="M20.0988 57.0645C19.8848 56.8518 19.5954 56.7324 19.2937 56.7324C18.992 56.7324 18.7025 56.8518 18.4886 57.0645L14.3889 61.1071L10.3463 57.0645C10.1323 56.8518 9.8429 56.7324 9.5412 56.7324C9.23951 56.7324 8.95007 56.8518 8.73611 57.0645C8.62907 57.1707 8.54412 57.297 8.48614 57.4361C8.42816 57.5753 8.39832 57.7245 8.39832 57.8753C8.39832 58.0261 8.42816 58.1753 8.48614 58.3145C8.54412 58.4536 8.62907 58.5799 8.73611 58.6861L13.5781 63.5281C13.6842 63.6351 13.8105 63.7201 13.9497 63.778C14.0889 63.836 14.2381 63.8659 14.3889 63.8659C14.5396 63.8659 14.6889 63.836 14.8281 63.778C14.9672 63.7201 15.0935 63.6351 15.1997 63.5281L20.0988 58.6861C20.2058 58.5799 20.2908 58.4536 20.3487 58.3145C20.4067 58.1753 20.4366 58.0261 20.4366 57.8753C20.4366 57.7245 20.4067 57.5753 20.3487 57.4361C20.2908 57.297 20.2058 57.1707 20.0988 57.0645Z" fill="#fff"/>
<g opacity="0.7">
<path d="M18.3858 45.0155C18.236 44.8666 18.0334 44.7831 17.8222 44.7831C17.6111 44.7831 17.4085 44.8666 17.2587 45.0155L14.3889 47.8454L11.5591 45.0155C11.4093 44.8666 11.2067 44.7831 10.9955 44.7831C10.7843 44.7831 10.5817 44.8666 10.432 45.0155C10.357 45.0898 10.2976 45.1783 10.257 45.2757C10.2164 45.3731 10.1955 45.4776 10.1955 45.5831C10.1955 45.6886 10.2164 45.7931 10.257 45.8905C10.2976 45.9879 10.357 46.0763 10.432 46.1507L13.8213 49.54C13.8956 49.615 13.9841 49.6744 14.0815 49.715C14.1789 49.7556 14.2834 49.7765 14.3889 49.7765C14.4944 49.7765 14.5989 49.7556 14.6963 49.715C14.7937 49.6744 14.8821 49.615 14.9565 49.54L18.3858 46.1507C18.4607 46.0763 18.5202 45.9879 18.5608 45.8905C18.6014 45.7931 18.6223 45.6886 18.6223 45.5831C18.6223 45.4776 18.6014 45.3731 18.5608 45.2757C18.5202 45.1783 18.4607 45.0898 18.3858 45.0155Z" fill="#fff"/>
</g>
<g opacity="0.4">
<path d="M17.5293 35.9077C17.4116 35.7907 17.2524 35.7251 17.0865 35.7251C16.9206 35.7251 16.7614 35.7907 16.6437 35.9077L14.3889 38.1311L12.1654 35.9077C12.0478 35.7907 11.8886 35.7251 11.7226 35.7251C11.5567 35.7251 11.3975 35.7907 11.2798 35.9077C11.221 35.9661 11.1742 36.0356 11.1424 36.1121C11.1105 36.1886 11.0941 36.2707 11.0941 36.3537C11.0941 36.4366 11.1105 36.5187 11.1424 36.5952C11.1742 36.6717 11.221 36.7412 11.2798 36.7996L13.9429 39.4627C14.0013 39.5216 14.0708 39.5683 14.1473 39.6002C14.2239 39.6321 14.306 39.6485 14.3889 39.6485C14.4718 39.6485 14.5539 39.6321 14.6304 39.6002C14.707 39.5683 14.7764 39.5216 14.8348 39.4627L17.5293 36.7996C17.5882 36.7412 17.6349 36.6717 17.6668 36.5952C17.6987 36.5187 17.7151 36.4366 17.7151 36.3537C17.7151 36.2707 17.6987 36.1886 17.6668 36.1121C17.6349 36.0356 17.5882 35.9661 17.5293 35.9077Z" fill="#fff"/>
</g>
<g clip-path="url(#clip0)">
<path d="M14.3665 0C9.69894 0 5.9017 3.79724 5.9017 8.4648V20.313C5.9017 24.9805 9.69894 28.7778 14.3665 28.7778C19.0341 28.7778 22.8313 24.9805 22.8313 20.313V8.4648C22.8313 3.79724 19.0341 0 14.3665 0ZM21.1047 20.313C21.1047 24.0283 18.0818 27.0512 14.3665 27.0512C10.6512 27.0512 7.6283 24.0283 7.6283 20.313V8.4648C7.6283 4.74946 10.6512 1.7266 14.3665 1.7266C18.0818 1.7266 21.1047 4.74946 21.1047 8.4648V20.313Z" fill="#ff0"/>
<path d="M14.3667 5.72473C13.8898 5.72473 13.5034 6.11115 13.5034 6.58803V10.5616C13.5034 11.0382 13.8898 11.4249 14.3667 11.4249C14.8434 11.4249 15.23 11.0382 15.23 10.5616V6.58803C15.23 6.11115 14.8436 5.72473 14.3667 5.72473Z" fill="#ff0"/>
</g>
<defs>
<clipPath id="clip0">
<rect width="28.7778" height="28.7778" fill="white"/>
</clipPath>
</defs>
</svg>
